<?xml version="1.0" standalone="no"?>
<!DOCTYPE svg PUBLIC "-//W3C//DTD SVG 20010904//EN"
 "http://www.w3.org/TR/2001/REC-SVG-20010904/DTD/svg10.dtd">
<svg version="1.0" xmlns="http://www.w3.org/2000/svg"
 width="7869.000000pt" height="5000.000000pt" viewBox="0 0 7869.000000 5000.000000"
 preserveAspectRatio="xMidYMid meet">

<g transform="translate(0.000000,5000.000000) scale(0.100000,-0.100000)"
fill="#000000" stroke="none">
<path d="M57385 41045 c-402 -42 -803 -138 -1175 -282 -173 -67 -537 -250
-698 -352 -482 -303 -871 -661 -1204 -1107 -492 -662 -782 -1436 -849 -2267
-15 -196 -7 -676 16 -857 60 -487 195 -951 404 -1383 582 -1209 1700 -2091
3003 -2372 288 -62 492 -84 824 -92 384 -8 671 18 1020 93 1688 361 3019 1715
3353 3409 64 325 75 454 76 855 0 392 -9 504 -61 790 -288 1578 -1415 2870
-2939 3370 -262 86 -539 147 -845 186 -179 22 -738 28 -925 9z m365 -1176 l0
-559 50 0 50 0 0 559 c0 308 3 562 8 564 4 2 73 0 154 -4 1436 -79 2697 -981
3249 -2321 156 -381 245 -788 273 -1245 l6 -93 -545 0 -545 0 0 -55 0 -55 546
0 546 0 -7 -107 c-24 -410 -77 -701 -190 -1038 -429 -1288 -1516 -2240 -2845
-2494 -169 -32 -334 -51 -497 -58 l-153 -6 0 541 0 542 -50 0 -50 0 0 -540 0
-540 -92 0 c-201 0 -501 44 -768 111 -946 237 -1788 864 -2286 1702 -321 540
-492 1111 -529 1774 l-7 113 549 2 548 3 3 53 3 52 -551 0 -550 0 5 98 c27
448 118 860 275 1241 514 1250 1642 2119 2980 2296 122 16 397 34 413 27 4 -2
7 -255 7 -563z"/>
<path d="M55726 38784 c-43 -43 -69 -15 974 -1059 911 -911 990 -993 990
-1023 0 -61 52 -122 102 -122 8 0 30 -51 57 -132 235 -721 596 -1806 604
-1815 5 -7 17 -13 27 -13 51 0 54 -9 -280 1002 l-321 973 21 36 c11 20 20 49
20 63 0 64 -55 116 -122 116 -30 0 -110 77 -1028 995 -547 547 -1003 995
-1012 995 -9 0 -24 -7 -32 -16z"/>
<path d="M42350 38556 c-176 -39 -376 -145 -520 -274 l-55 -49 -165 -6 c-109
-3 -201 -12 -272 -26 -116 -23 -328 -88 -417 -128 -31 -13 -110 -35 -175 -49
-748 -158 -1398 -834 -1433 -1489 -16 -313 116 -576 362 -719 36 -21 65 -40
65 -42 0 -1 -20 -42 -44 -91 -70 -140 -88 -208 -93 -363 -4 -114 -2 -149 16
-224 39 -162 115 -308 235 -450 l57 -67 -20 -87 c-61 -260 -57 -538 10 -766
87 -291 299 -580 582 -792 132 -99 272 -182 264 -157 -4 10 -33 97 -66 193
-124 361 -187 686 -213 1093 -17 275 9 820 63 1297 22 202 46 381 51 384 2 2
39 15 83 30 455 156 882 524 1090 939 44 87 115 289 115 326 0 16 10 21 57 27
96 12 369 -3 466 -25 641 -147 1181 -661 1457 -1386 82 -215 144 -472 171
-706 l12 -106 59 -11 c85 -16 145 -49 214 -118 104 -105 154 -235 154 -404 0
-239 -113 -429 -300 -505 -29 -12 -74 -19 -129 -20 l-84 -2 -24 -83 c-50 -172
-158 -425 -268 -620 l-25 -45 15 -265 c8 -146 15 -269 15 -274 0 -5 30 -6 68
-2 162 16 313 139 391 322 l22 51 42 -7 c141 -26 347 -20 477 14 167 44 292
121 377 231 64 83 148 251 196 390 32 92 82 293 107 426 l11 55 57 19 c31 11
89 41 129 68 171 114 271 288 309 538 36 236 -10 450 -126 590 l-39 46 26 38
c34 51 106 205 133 285 76 226 97 549 48 749 -19 81 -74 188 -124 241 -83 88
-265 155 -370 136 -29 -6 -34 -4 -39 16 -2 13 -16 77 -31 143 -141 652 -500
1009 -989 981 -60 -3 -119 -7 -131 -8 -14 -2 -36 15 -73 60 -138 165 -332 251
-536 238 -92 -6 -213 -34 -268 -63 -29 -15 -32 -14 -42 2 -5 9 -35 51 -66 93
-158 218 -335 351 -535 402 -89 23 -245 26 -334 6z"/>
<path d="M41680 31143 c-19 -2 -150 -15 -290 -29 -921 -91 -1882 -255 -2405
-408 -44 -13 -98 -27 -120 -31 -215 -37 -488 -309 -761 -761 -96 -159 -222
-400 -296 -569 -328 -741 -817 -2276 -1287 -4039 -50 -187 -91 -342 -91 -346
0 -3 21 -14 48 -23 44 -16 176 -17 1842 -17 1968 0 1833 4 1954 -57 69 -35
158 -122 194 -191 17 -31 92 -208 167 -392 76 -184 168 -409 205 -500 37 -91
89 -217 115 -280 26 -63 98 -239 160 -390 62 -151 159 -387 215 -525 56 -137
144 -351 195 -475 51 -124 126 -308 168 -410 42 -102 138 -338 215 -525 l139
-340 39 -7 c21 -4 194 -14 384 -22 999 -46 1801 -61 2420 -47 520 12 990 38
1007 54 2 3 11 162 19 354 38 955 115 2427 127 2439 2 3 89 0 193 -6 494 -27
1202 -22 1599 11 264 22 678 80 697 97 6 7 17 199 39 722 17 405 23 1596 10
1970 -47 1370 -202 2342 -486 3050 -222 555 -517 927 -885 1114 -126 64 -181
83 -280 95 -41 6 -469 78 -950 161 -910 157 -1205 202 -1575 244 -240 28 -667
68 -669 64 -20 -53 -310 -494 -491 -748 -322 -451 -562 -747 -790 -973 -263
-261 -452 -360 -572 -299 -121 62 -206 265 -234 560 -22 228 -2 636 47 987 13
93 67 422 78 478 4 18 -7 19 -94 10z"/>
<path d="M65034 30276 c-31 -14 -54 -46 -277 -406 -52 -85 -102 -163 -109
-173 -12 -16 -25 -13 -188 53 -136 55 -183 70 -209 66 -84 -13 -124 -115 -72
-184 11 -15 74 -46 170 -85 84 -34 154 -65 154 -68 3 -8 -286 -479 -293 -479
-3 0 -78 29 -166 65 -87 36 -169 65 -182 65 -31 0 -77 -25 -96 -52 -9 -12 -16
-42 -16 -65 0 -67 32 -93 185 -153 72 -29 134 -55 138 -59 5 -5 -63 -125 -151
-267 -193 -314 -182 -294 -182 -342 0 -54 28 -86 98 -112 63 -24 112 -22 143
6 11 10 100 149 200 310 l180 292 231 -94 c128 -52 233 -96 235 -98 2 -2 -74
-129 -168 -282 -181 -295 -191 -318 -160 -378 18 -33 107 -76 159 -76 24 0 49
8 65 20 13 11 105 150 203 310 98 159 182 290 187 290 5 0 80 -29 168 -65 171
-70 226 -79 265 -47 43 35 56 94 32 147 -14 31 -57 54 -213 115 -60 24 -114
46 -118 50 -11 9 272 480 289 480 7 0 79 -27 160 -60 177 -72 220 -77 265 -29
24 26 29 40 29 81 0 69 -26 90 -194 158 -86 34 -135 59 -132 66 3 7 28 50 57
95 223 357 269 439 269 483 0 57 -37 96 -113 120 -59 19 -94 15 -125 -14 -11
-11 -98 -144 -193 -297 -95 -153 -174 -280 -175 -282 -4 -5 -456 177 -465 187
-4 4 67 126 157 272 89 146 166 277 169 293 11 47 -22 98 -84 130 -61 30 -82
32 -127 13z m-14 -1001 c118 -48 219 -91 224 -96 10 -9 -273 -479 -289 -479
-5 0 -112 41 -237 92 -220 89 -226 92 -215 114 55 102 284 463 292 460 6 -2
107 -43 225 -91z"/>
<path d="M56739 24967 c-64 -18 -132 -60 -168 -104 -84 -101 -269 -595 -334
-893 -60 -267 -81 -568 -58 -804 24 -249 73 -429 246 -900 170 -467 248 -741
315 -1106 89 -494 124 -860 185 -1940 51 -912 95 -1325 191 -1815 37 -187 90
-395 198 -770 165 -577 200 -773 200 -1105 -1 -446 -82 -777 -409 -1680 -37
-102 -85 -239 -107 -305 -22 -66 -43 -123 -47 -127 -3 -4 -43 29 -89 73 -47
45 -88 77 -94 73 -7 -4 -8 -3 -4 5 9 13 -142 173 -155 165 -5 -3 -6 3 -2 12 5
13 3 16 -10 11 -9 -3 -19 -1 -23 5 -4 7 -3 8 4 4 24 -15 11 11 -20 40 -20 19
-29 23 -25 12 9 -25 0 -22 -14 3 -8 15 -8 19 0 15 23 -15 9 8 -35 58 -26 28
-51 50 -55 48 -5 -1 -8 4 -7 10 2 7 -3 12 -10 10 -8 -1 -11 2 -7 8 7 12 -43
76 -57 72 -4 -1 -7 2 -6 7 4 13 -42 72 -52 66 -5 -3 -12 0 -16 6 -4 8 -3 9 4
5 7 -4 12 -3 12 3 0 11 -20 26 -35 26 -5 0 -10 7 -10 15 0 24 -36 71 -49 63
-6 -3 -8 -2 -3 2 14 16 -63 105 -86 97 -5 -1 -5 2 -2 8 5 8 14 5 27 -7 11 -10
-5 18 -37 62 -32 44 -62 79 -67 77 -5 -1 -7 2 -3 7 7 13 -53 97 -67 93 -5 -1
-7 2 -3 8 7 12 -25 71 -36 64 -4 -2 -11 1 -15 7 -5 8 -3 9 6 4 8 -5 11 -3 8 6
-3 8 -11 13 -17 11 -7 -1 -10 2 -6 8 8 13 -19 52 -30 42 -5 -4 -5 -2 -1 5 9
16 -68 139 -85 135 -8 -2 -11 0 -7 4 4 4 2 14 -5 22 -10 13 -9 14 2 7 10 -6 8
3 -6 26 -11 19 -29 49 -39 67 -12 20 -24 30 -33 27 -11 -4 -11 -3 -2 9 10 12
7 23 -15 58 -16 24 -29 48 -30 53 -5 27 -51 104 -59 98 -4 -5 -5 -3 -1 4 7 13
-19 73 -36 84 -5 3 -9 8 -7 10 5 9 -13 49 -22 49 -6 0 -7 5 -4 10 4 6 1 18 -6
26 -7 9 -14 22 -15 30 -1 8 -17 45 -35 82 -18 37 -33 69 -34 72 -13 57 -17 63
-26 49 -8 -11 -9 -9 -4 7 7 27 -4 56 -18 47 -6 -3 -7 -1 -3 6 4 6 -8 53 -27
104 -69 180 -164 465 -174 518 -1 9 -8 29 -14 45 -7 16 -13 34 -13 39 -5 43
-42 152 -50 148 -5 -4 -7 1 -3 11 6 15 -54 252 -80 316 -3 8 -7 24 -9 35 -7
47 -96 340 -105 343 -5 2 -7 8 -4 12 8 13 -94 320 -106 320 -6 0 -8 4 -5 9 6
9 -10 61 -37 124 -8 17 -31 73 -52 122 -70 168 -118 265 -128 258 -6 -3 -7 -1
-3 5 9 15 -34 93 -47 85 -6 -3 -7 -1 -3 6 4 6 -5 33 -21 59 -16 26 -35 59 -42
74 -8 15 -18 25 -22 22 -4 -2 -11 1 -15 7 -4 8 -3 9 4 5 7 -4 12 -4 12 -1 0 6
-52 90 -91 147 -11 15 -19 31 -19 35 -1 18 -77 113 -85 106 -4 -5 -5 -3 -1 4
8 14 -41 89 -56 85 -5 -1 -7 2 -3 7 8 14 -25 62 -38 54 -5 -3 -7 -1 -3 5 6 10
-10 39 -64 117 -12 17 -36 53 -54 82 -27 43 -35 50 -46 40 -12 -10 -12 -9 -1
5 10 14 10 21 -2 38 -7 11 -16 18 -19 15 -2 -3 -5 1 -5 8 0 8 -29 60 -65 118
-35 57 -68 112 -71 122 -4 11 -12 15 -18 11 -8 -4 -9 -3 -5 4 4 7 -5 34 -21
61 -23 42 -30 48 -43 38 -13 -10 -13 -10 -2 4 10 14 -1 42 -74 184 -63 121
-89 163 -96 153 -7 -9 -8 -7 -3 8 6 24 -33 116 -47 108 -4 -3 -5 3 -1 12 5 13
3 15 -7 9 -8 -5 -11 -4 -6 3 4 6 -16 59 -44 117 -27 59 -50 111 -50 116 0 6
-4 8 -8 5 -4 -2 -8 3 -9 12 -2 24 -53 132 -62 132 -4 0 -8 6 -8 13 0 24 -98
225 -107 220 -5 -4 -6 -1 -2 5 8 13 -38 105 -48 95 -4 -4 -4 0 -1 9 4 10 -1
23 -14 34 -11 10 -18 21 -15 26 3 4 0 17 -7 29 -9 17 -13 19 -20 8 -6 -9 -9
-10 -9 -2 0 6 4 14 9 17 5 3 -11 43 -35 88 -24 45 -44 85 -44 90 0 5 -4 6 -10
3 -6 -4 -7 1 -3 11 5 13 3 15 -7 9 -8 -5 -11 -4 -6 3 9 15 -15 63 -28 55 -6
-3 -8 -3 -4 2 8 9 -2 30 -90 185 -58 102 -198 327 -212 340 -3 3 -22 31 -44
62 -21 32 -43 55 -49 51 -6 -4 -7 -1 -3 6 9 13 -22 54 -34 46 -4 -3 -14 3 -21
13 -13 15 -12 16 4 3 28 -22 20 -1 -19 46 -31 38 -38 42 -52 31 -15 -12 -16
-11 -3 5 11 13 11 20 1 32 -7 8 -16 12 -21 9 -5 -3 -6 2 -3 10 5 14 -28 41
-38 31 -3 -3 -13 5 -24 17 l-19 23 23 -19 c35 -30 25 -5 -19 47 -22 26 -45 44
-51 41 -6 -4 -8 -2 -4 4 3 6 2 13 -3 16 -5 3 -12 -13 -15 -37 -41 -284 -33
-692 19 -1000 24 -139 86 -387 96 -381 5 3 6 -1 3 -9 -6 -18 53 -196 75 -221
9 -11 10 -16 4 -12 -9 5 -11 2 -7 -8 3 -9 10 -16 16 -16 5 0 7 -4 4 -9 -6 -9
7 -44 56 -153 12 -26 26 -44 31 -41 6 3 7 1 3 -6 -12 -18 74 -184 88 -172 8 7
12 4 12 -9 0 -10 -4 -16 -9 -13 -17 10 15 -42 37 -60 11 -10 15 -16 9 -12 -9
4 -11 1 -7 -9 3 -9 11 -13 17 -9 6 3 7 1 3 -5 -9 -15 23 -64 37 -55 5 3 7 1 3
-5 -9 -14 33 -84 47 -75 6 3 7 1 3 -5 -6 -11 38 -92 50 -92 4 0 1 6 -5 14 -9
11 -9 16 0 22 7 4 9 3 5 -4 -3 -6 -2 -13 4 -17 6 -4 8 -11 4 -16 -7 -12 55
-91 66 -84 4 3 7 -3 6 -13 0 -9 5 -16 12 -14 8 1 11 -2 8 -6 -7 -12 64 -103
75 -96 5 3 8 1 7 -3 -3 -10 71 -101 147 -179 28 -28 61 -64 74 -80 30 -35 144
-167 151 -174 3 -3 18 -22 33 -43 16 -21 33 -34 39 -31 7 4 8 2 4 -4 -9 -15
65 -123 78 -115 5 4 6 1 3 -5 -10 -15 3 -43 16 -35 6 3 7 1 3 -5 -3 -6 9 -42
28 -79 18 -37 37 -78 41 -91 3 -12 11 -19 17 -16 7 4 8 2 4 -4 -6 -10 26 -120
42 -146 3 -5 6 -22 7 -38 2 -16 11 -38 21 -50 11 -12 13 -18 5 -13 -10 6 -12
2 -6 -15 4 -12 8 -32 10 -43 1 -12 12 -85 23 -162 25 -168 27 -195 57 -835 6
-115 31 -380 46 -475 11 -74 15 -105 24 -174 18 -156 106 -562 119 -554 5 3 6
1 2 -5 -13 -21 80 -346 177 -622 72 -204 85 -232 100 -224 9 5 9 4 0 -6 -9
-10 -8 -20 5 -44 9 -17 15 -34 14 -38 -1 -5 3 -8 9 -8 5 0 8 -4 5 -9 -9 -13
26 -91 37 -84 6 3 7 1 3 -5 -7 -12 69 -185 84 -190 5 -2 7 -9 4 -16 -3 -7 6
-28 20 -48 13 -20 22 -39 18 -42 -3 -3 1 -6 8 -6 7 0 11 -3 7 -6 -7 -7 38
-101 62 -128 9 -10 15 -21 14 -25 -4 -11 78 -161 88 -161 6 0 8 -4 5 -8 -7
-12 150 -273 159 -264 5 4 5 2 2 -4 -7 -13 27 -67 37 -57 4 4 5 1 2 -7 -3 -8
3 -26 14 -39 17 -20 22 -22 38 -10 9 7 14 9 10 5 -4 -5 -3 -15 4 -23 8 -10 8
-17 -1 -26 -10 -9 -11 -8 -6 4 7 17 -10 36 -19 21 -4 -7 67 -129 87 -149 5 -4
12 -1 17 7 7 11 9 10 7 -7 0 -12 -5 -19 -10 -16 -4 2 6 -18 24 -46 27 -45 33
-50 48 -39 14 11 14 11 3 -4 -11 -14 -1 -34 74 -150 47 -73 96 -141 108 -151
11 -10 15 -16 8 -12 -21 11 0 -25 29 -50 12 -11 19 -14 14 -6 -5 9 -4 12 3 7
5 -3 12 0 15 6 3 7 4 3 4 -9 -1 -12 -4 -21 -8 -20 -13 4 -8 -18 12 -51 14 -24
24 -32 36 -28 12 5 13 3 6 -6 -8 -10 4 -37 43 -102 29 -49 58 -92 64 -96 7 -4
11 -10 10 -14 -3 -15 98 -175 106 -168 5 4 6 3 2 -2 -9 -11 29 -86 43 -86 6 0
8 -4 5 -9 -3 -5 4 -20 15 -35 11 -14 18 -26 14 -26 -3 0 -1 -9 5 -21 7 -13 17
-18 27 -15 13 5 13 4 4 -8 -9 -11 -8 -15 4 -20 9 -3 14 -10 11 -15 -8 -13 68
-164 78 -154 4 4 4 0 0 -10 -4 -11 -1 -17 7 -17 7 0 9 -3 6 -6 -3 -4 -1 -16 5
-28 7 -11 13 -25 14 -31 6 -27 71 -164 76 -159 3 3 5 -1 5 -8 -3 -26 35 -118
45 -112 7 4 8 2 4 -5 -7 -11 25 -124 47 -166 6 -11 12 -27 13 -35 1 -8 15 -67
32 -130 44 -161 100 -441 118 -585 6 -47 79 -547 95 -652 6 -40 14 -71 18 -69
3 2 7 -15 7 -38 2 -49 52 -267 66 -281 6 -6 7 -4 3 7 -4 10 -3 18 3 18 11 0
11 -18 -2 -38 -9 -15 -143 106 -382 343 -372 370 -521 617 -629 1045 -43 171
-94 319 -141 410 -113 220 -310 415 -592 587 -143 87 -460 243 -494 243 -70 0
-104 -81 -74 -182 23 -81 61 -125 187 -220 294 -221 513 -524 623 -863 57
-177 82 -324 121 -715 62 -622 117 -791 407 -1255 176 -282 247 -419 304 -591
59 -175 78 -291 119 -699 27 -276 53 -441 87 -567 l21 -78 1168 0 1168 0 9 32
9 33 17 -32 17 -33 1497 0 1497 0 28 50 c16 28 25 55 22 60 -3 6 1 13 9 16 9
3 14 10 11 14 -3 4 2 11 11 14 9 4 14 13 10 22 -3 8 -2 13 3 10 10 -7 33 42
25 55 -3 5 0 8 8 7 7 -2 12 5 12 15 -1 10 1 16 4 13 9 -10 83 114 76 126 -4 6
-2 8 4 4 10 -6 59 62 54 77 -1 4 2 7 7 7 13 0 81 92 75 102 -3 4 -1 7 4 6 29
-8 274 361 285 429 2 10 8 27 14 38 19 37 58 222 63 300 0 11 5 182 9 380 5
198 14 394 20 435 6 41 13 93 16 115 3 22 12 71 20 109 8 38 13 71 10 74 -3 3
-1 10 4 16 5 6 12 25 15 41 3 17 14 61 25 100 14 50 17 73 9 83 -8 9 -7 11 3
7 10 -4 24 25 52 110 21 63 35 120 31 127 -4 6 -3 8 4 4 13 -8 26 29 16 45 -4
8 -3 9 4 5 7 -4 12 -1 12 7 0 8 7 28 16 46 9 17 17 37 18 44 1 7 5 18 9 25 5
6 5 17 1 24 -4 7 -3 8 4 4 7 -4 12 -2 12 4 0 7 16 48 36 93 20 45 37 87 38 92
1 6 12 28 23 50 43 83 71 162 62 178 -6 10 -5 18 1 22 6 4 10 3 9 -2 -1 -4 -1
-12 0 -18 2 -10 81 149 85 170 1 6 10 25 19 43 10 18 15 38 11 44 -4 6 -3 8 2
5 13 -8 98 188 88 204 -4 7 -3 10 3 6 6 -4 13 0 17 8 3 8 0 15 -6 15 -7 0 -5
5 4 12 17 14 30 40 78 165 18 45 29 87 24 94 -4 7 -3 10 4 6 11 -7 55 109 47
123 -3 5 0 10 6 12 6 2 12 16 12 31 1 15 5 27 10 27 4 0 6 3 5 8 -1 4 4 20 10
35 20 47 102 383 107 433 1 11 4 24 7 30 3 5 8 22 12 37 5 22 4 27 -6 21 -7
-4 -6 1 3 12 18 21 63 158 61 187 0 9 3 15 7 13 10 -7 32 64 24 77 -3 6 -1 7
4 4 6 -4 14 0 17 9 4 10 2 13 -7 8 -6 -4 -2 3 11 15 20 20 24 28 21 47 0 4 4
10 10 13 6 4 33 44 61 90 36 59 49 90 45 105 -5 16 -4 17 4 7 7 -12 14 -7 33
25 12 21 21 45 20 52 -2 9 1 11 9 6 9 -5 10 -2 6 10 -4 9 -3 15 2 12 7 -5 20
13 25 34 1 3 15 25 30 50 16 25 29 51 29 57 0 7 4 13 8 13 13 0 89 151 83 162
-4 6 -3 8 3 5 13 -8 34 38 27 57 -3 8 -1 17 5 21 7 4 8 -1 4 -12 -8 -23 1 -15
17 16 10 19 10 22 -2 16 -7 -3 -6 -1 3 7 24 20 61 98 55 114 -3 8 -2 13 3 10
4 -3 13 6 20 21 11 25 11 25 -6 12 -10 -8 -5 1 10 19 15 19 28 40 28 48 2 19
3 24 18 59 7 17 15 58 18 92 l6 61 -41 27 c-22 14 -61 33 -88 41 -55 16 -190
19 -199 4 -4 -6 -15 -8 -26 -5 -11 4 -19 2 -19 -5 0 -6 -4 -9 -8 -6 -14 8 -82
-16 -75 -27 3 -6 1 -7 -5 -3 -13 8 -52 -10 -52 -24 0 -5 6 -8 13 -6 6 1 9 1 4
-1 -4 -3 -4 -10 0 -16 3 -7 -2 -4 -13 5 -18 16 -21 16 -52 -4 -19 -12 -31 -26
-28 -34 3 -8 0 -11 -8 -8 -18 7 -89 -63 -80 -78 4 -6 3 -8 -4 -4 -6 3 -23 -13
-40 -36 -15 -24 -40 -60 -55 -82 -20 -29 -24 -42 -17 -56 7 -13 7 -21 0 -25
-6 -4 -10 -3 -9 2 6 33 -7 17 -37 -45 -19 -41 -31 -79 -28 -84 5 -7 2 -8 -6
-3 -10 6 -12 4 -7 -8 3 -10 2 -17 -3 -17 -6 0 -9 -3 -8 -7 1 -5 -4 -21 -11
-38 -7 -16 -14 -34 -15 -40 -2 -5 -6 -17 -9 -25 -21 -48 -46 -134 -42 -140 3
-5 1 -11 -4 -14 -5 -4 -19 -37 -31 -74 -11 -37 -25 -75 -31 -85 -23 -43 -50
-128 -43 -139 4 -7 3 -10 -1 -5 -11 9 -37 -51 -28 -66 3 -5 2 -7 -3 -4 -13 8
-98 -189 -88 -204 4 -7 3 -9 -3 -6 -12 8 -86 -150 -77 -165 4 -6 3 -8 -2 -5
-6 3 -38 -48 -72 -114 -35 -65 -59 -119 -55 -119 4 0 0 -5 -9 -11 -10 -5 -18
-14 -18 -19 0 -5 -14 -32 -31 -60 -17 -27 -27 -55 -23 -61 4 -7 3 -9 -3 -6 -5
4 -16 -6 -24 -21 -7 -15 -24 -41 -37 -59 -14 -19 -21 -38 -16 -45 4 -7 4 -10
-1 -6 -13 12 -107 -141 -100 -162 3 -10 1 -21 -4 -25 -7 -4 -8 1 -4 12 6 17 5
16 -16 -1 -12 -11 -19 -26 -16 -33 2 -8 1 -11 -5 -8 -5 3 -14 -5 -21 -17 -7
-13 -53 -80 -104 -149 -115 -157 -110 -149 -85 -144 11 2 18 0 15 -5 -3 -4
-13 -7 -23 -5 -9 1 -23 -2 -30 -8 -26 -20 54 187 218 563 228 526 265 661 355
1290 67 463 116 691 271 1258 224 821 290 1146 315 1555 14 219 1 469 -32 632
-57 283 -198 445 -385 445 -153 0 -307 -130 -372 -313 -36 -100 -40 -270 -16
-570 15 -196 16 -250 6 -390 -20 -280 -72 -517 -167 -759 -153 -387 -306 -604
-776 -1098 -244 -257 -307 -328 -407 -460 -112 -148 -152 -210 -223 -345 -145
-277 -233 -563 -359 -1165 -57 -269 -114 -518 -130 -565 -16 -48 -4 265 15
368 8 49 13 93 10 98 -4 5 -2 9 3 9 9 0 15 21 29 100 3 14 5 33 6 43 1 9 4 17
8 17 4 0 10 17 15 38 8 41 8 41 17 62 24 59 115 354 111 361 -3 5 -1 9 4 9 13
0 44 114 36 136 -4 14 -3 15 4 6 7 -10 12 -2 20 28 6 23 8 49 5 56 -3 8 0 14
7 14 9 0 9 4 -1 17 -8 9 -9 14 -2 10 7 -4 14 0 17 10 16 56 37 153 40 184 2
20 6 40 9 46 8 12 48 240 46 256 -1 7 1 19 4 27 11 27 49 360 44 386 -2 13 -1
24 3 24 5 0 7 23 7 50 -1 28 2 50 6 50 4 0 7 15 6 33 -1 17 3 91 9 162 6 72
10 141 9 155 -2 14 0 30 4 35 4 6 10 67 13 135 4 69 13 213 21 320 9 107 14
213 13 235 -1 23 1 45 5 51 3 6 8 70 11 142 3 73 8 137 11 142 3 5 5 33 4 62
-1 29 1 67 4 83 4 17 9 82 12 145 3 63 10 174 16 245 6 72 8 145 5 162 -2 18
0 35 5 39 5 3 9 20 8 37 0 18 2 77 6 132 4 55 9 132 12 170 2 39 6 106 8 151
2 44 6 87 9 95 3 11 33 466 35 529 0 8 3 51 6 95 4 44 8 117 10 163 2 45 6 86
9 90 3 5 7 70 10 146 3 75 8 147 11 159 2 12 7 72 10 132 3 61 9 160 14 220 5
61 9 131 8 158 -1 26 1 47 5 47 6 0 11 75 12 213 1 37 4 67 7 67 4 0 7 21 7
48 1 26 3 72 6 102 3 30 12 141 20 245 9 105 18 219 21 255 3 36 8 90 10 120
2 30 15 177 28 325 14 149 25 277 25 285 1 8 6 60 12 114 6 54 9 105 6 112 -3
7 -1 14 4 16 5 2 10 44 12 93 2 50 6 92 9 95 6 6 52 405 53 465 1 22 4 42 7
45 5 5 51 352 55 415 1 17 4 37 7 45 3 8 13 69 22 135 24 175 90 582 131 798
19 104 33 198 30 210 -3 12 -3 15 1 7 8 -19 34 108 27 133 -3 9 0 17 5 17 6 0
11 12 11 28 0 15 7 63 15 107 9 44 14 92 12 107 -2 15 1 29 6 31 12 4 15 408
4 492 -16 120 -57 261 -72 248 -4 -5 -5 -3 -2 4 9 14 -2 45 -13 38 -5 -3 -6 3
-4 12 5 22 -53 126 -66 118 -6 -4 -7 1 -3 11 5 13 3 16 -10 11 -10 -4 -16 -2
-14 5 6 31 -112 75 -137 51 -4 -5 -11 -8 -15 -8 -18 0 -70 -68 -88 -116 -39
-99 -75 -199 -77 -212 -1 -6 -5 -18 -10 -25 -10 -16 -76 -212 -74 -220 1 -4
-7 -25 -16 -46 -10 -22 -19 -49 -20 -61 -1 -11 -5 -25 -9 -31 -16 -26 -68
-207 -63 -220 4 -10 2 -12 -6 -8 -7 5 -9 0 -6 -14 4 -12 3 -20 -2 -17 -4 2
-13 -17 -20 -43 -7 -26 -21 -75 -32 -110 -11 -34 -17 -70 -14 -78 3 -8 2 -12
-4 -9 -10 6 -15 -13 -12 -48 1 -10 -2 -16 -7 -13 -10 7 -34 -81 -26 -95 4 -5
2 -9 -4 -9 -6 0 -13 -17 -18 -37 -9 -46 -8 -45 -16 -63 -3 -8 -15 -49 -26 -90
-32 -121 -111 -413 -117 -434 -5 -14 -3 -16 7 -11 8 5 6 -1 -4 -13 -11 -12
-20 -38 -20 -60 -1 -22 -5 -38 -9 -35 -5 2 -9 -6 -10 -19 -2 -36 -3 -42 -10
-53 -3 -6 -15 -46 -26 -90 -11 -44 -41 -160 -67 -259 -25 -98 -44 -185 -41
-193 3 -8 2 -12 -2 -9 -11 6 -64 -212 -56 -226 4 -7 2 -8 -4 -4 -11 7 -16 -12
-16 -66 0 -9 -3 -15 -8 -12 -4 3 -8 -1 -8 -9 0 -7 -27 -116 -60 -241 -32 -126
-59 -231 -58 -235 1 -3 -4 -19 -10 -34 -15 -36 -15 -50 0 -41 7 4 8 3 4 -5 -4
-6 -12 -9 -17 -6 -5 4 -9 -1 -9 -9 0 -15 -40 -163 -96 -358 -14 -48 -23 -92
-20 -97 4 -5 1 -11 -6 -13 -7 -3 -12 -21 -12 -41 0 -19 -3 -34 -6 -32 -4 3
-22 -46 -40 -108 -18 -62 -35 -118 -38 -126 -3 -9 -1 -12 6 -7 6 3 14 1 18 -5
4 -7 3 -9 -3 -6 -17 11 -29 -12 -63 -123 -18 -58 -68 -211 -112 -340 -43 -129
-81 -239 -82 -245 -2 -5 -9 -23 -15 -40 -7 -16 -26 -68 -43 -115 -16 -47 -36
-99 -44 -117 -8 -17 -14 -35 -14 -40 0 -5 -9 -28 -20 -51 -11 -22 -21 -49 -23
-59 -2 -10 -18 -49 -35 -86 -17 -38 -33 -76 -34 -85 -2 -10 -7 -20 -11 -23 -5
-4 -10 -18 -10 -32 -1 -14 -5 -23 -9 -21 -9 6 -22 -36 -14 -44 3 -3 -2 -15
-12 -26 -11 -12 -35 -59 -54 -106 -20 -47 -48 -111 -62 -142 -14 -32 -23 -58
-20 -58 4 0 2 -6 -4 -13 -10 -11 -89 -194 -96 -222 -2 -5 -9 -23 -15 -40 -7
-16 -14 -34 -15 -40 -2 -5 -8 -21 -13 -35 -22 -53 -94 -278 -92 -286 1 -5 -3
-22 -10 -38 -21 -52 -76 -334 -80 -406 0 -8 -5 -49 -10 -90 -21 -148 -24 -551
-7 -915 24 -526 20 -1109 -10 -1405 -3 -30 -7 -86 -10 -125 -9 -113 -13 -146
-24 -214 -6 -35 -8 -71 -5 -79 3 -8 1 -20 -4 -26 -4 -6 -14 -49 -20 -96 -14
-97 -34 -213 -62 -349 -11 -51 -17 -96 -14 -99 2 -3 1 -10 -4 -16 -5 -6 -12
-27 -16 -46 -11 -61 -14 -73 -35 -150 -42 -153 -51 -182 -56 -178 -2 3 -22 65
-43 139 -140 476 -206 892 -242 1534 -7 125 -14 944 -19 2180 -8 2035 -9 2066
-51 2405 -53 429 -135 740 -404 1545 -176 526 -226 688 -290 940 -125 489
-155 770 -155 1470 0 381 -10 562 -41 755 -51 321 -163 618 -270 714 -78 70
-203 100 -300 73z m4558 -2369 c-3 -8 -6 -5 -6 6 -1 11 2 17 5 13 3 -3 4 -12
1 -19z m-7986 -2315 c-12 -20 -14 -14 -5 12 4 9 9 14 11 11 3 -2 0 -13 -6 -23z
m269 -518 c0 -2 -9 -3 -19 -2 -11 0 -18 5 -15 9 4 6 34 0 34 -7z m363 -708 c3
-8 -1 -14 -8 -14 -7 0 -11 6 -8 14 3 7 6 13 8 13 2 0 5 -6 8 -13z m-519 -25
c3 -5 -1 -9 -9 -9 -8 0 -12 4 -9 9 3 4 7 8 9 8 2 0 6 -4 9 -8z m4 -47 c-3 -3
-9 2 -12 12 -6 14 -5 15 5 6 7 -7 10 -15 7 -18z m5513 -1518 c-10 -9 -11 -8
-5 6 3 10 9 15 12 12 3 -3 0 -11 -7 -18z m-3446 -2066 c-6 -5 -25 10 -25 20 0
5 6 4 14 -3 8 -7 12 -15 11 -17z m145 -295 c0 -2 -8 -10 -17 -17 -16 -13 -17
-12 -4 4 13 16 21 21 21 13z m-1255 -65 c-9 -8 -36 -10 -30 -2 2 4 11 8 20 8
8 0 13 -3 10 -6z m166 -353 c-10 -11 -11 -9 -5 6 6 15 4 17 -6 11 -9 -6 -11
-4 -5 4 5 9 10 10 18 2 8 -8 7 -14 -2 -23z m137 -253 c-3 -3 -9 2 -12 12 -6
14 -5 15 5 6 7 -7 10 -15 7 -18z m1369 -10 c0 -8 -4 -12 -9 -9 -5 3 -6 10 -3
15 9 13 12 11 12 -6z m-24 -8 c3 -8 -1 -14 -8 -14 -7 0 -11 6 -8 14 3 7 6 13
8 13 2 0 5 -6 8 -13z m65 -67 c-7 -10 -14 -17 -17 -15 -4 4 18 35 25 35 2 0
-1 -9 -8 -20z m-1143 -280 c-3 -5 -12 -10 -18 -10 -7 0 -6 4 3 10 19 12 23 12
15 0z m8165 -54 c0 -3 -4 -8 -10 -11 -5 -3 -10 -1 -10 4 0 6 5 11 10 11 6 0
10 -2 10 -4z m528 -121 c-3 -3 -9 2 -12 12 -6 14 -5 15 5 6 7 -7 10 -15 7 -18z
m-6982 -235 c0 -12 -4 -16 -9 -11 -5 5 -6 14 -3 20 10 15 12 14 12 -9z m-1422
-148 c3 -5 -1 -9 -9 -9 -8 0 -12 4 -9 9 3 4 7 8 9 8 2 0 6 -4 9 -8z m346 -538
c0 -8 -19 -13 -24 -6 -3 5 1 9 9 9 8 0 15 -2 15 -3z m72 -106 c-14 -14 -16
-32 -2 -23 6 4 7 -1 3 -11 -6 -15 -7 -15 -15 0 -9 16 5 46 20 46 3 0 1 -5 -6
-12z m6871 -123 c-3 -9 -8 -14 -10 -11 -3 3 -2 9 2 15 9 16 15 13 8 -4z
m-6720 -210 c-3 -9 -8 -14 -10 -11 -3 3 -2 9 2 15 9 16 15 13 8 -4z m6574 -52
c0 -9 -4 -10 -14 -2 -7 6 -13 12 -13 14 0 1 6 2 13 2 8 0 14 -6 14 -14z m-242
-393 c3 -6 -1 -7 -9 -4 -18 7 -21 14 -7 14 6 0 13 -4 16 -10z m-238 -325 c0
-8 -4 -12 -9 -9 -5 3 -6 10 -3 15 9 13 12 11 12 -6z m88 5 c3 -6 -1 -7 -9 -4
-18 7 -21 14 -7 14 6 0 13 -4 16 -10z m766 -57 c-12 -20 -14 -14 -5 12 4 9 9
14 11 11 3 -2 0 -13 -6 -23z m-82 -177 c-3 -3 -11 5 -18 17 -13 21 -12 21 5 5
10 -10 16 -20 13 -22z m-808 -3073 c13 -16 12 -17 -3 -4 -17 13 -22 21 -14 21
2 0 10 -8 17 -17z m-141 -207 c0 -2 -6 -9 -14 -15 -11 -9 -16 -9 -22 0 -4 7
-3 9 4 5 6 -3 13 -2 17 4 6 10 15 14 15 6z m-100 -102 c0 -8 -19 -13 -24 -6
-3 5 1 9 9 9 8 0 15 -2 15 -3z"/>
<path d="M24605 22488 c-119 -107 -135 -121 -464 -412 -155 -137 -280 -252
-279 -256 6 -14 273 -369 278 -369 3 0 129 110 280 244 151 135 277 245 280
245 3 0 207 -182 453 -405 l447 -405 172 118 c95 65 296 203 446 306 150 103
279 189 287 192 7 3 186 -106 396 -242 364 -236 383 -247 396 -228 12 16 215
326 236 361 4 7 -171 126 -501 339 -279 180 -511 331 -517 335 -5 4 -127 -73
-270 -171 -143 -98 -338 -231 -433 -296 l-172 -118 -33 31 c-145 136 -898 813
-904 813 -4 -1 -48 -37 -98 -82z"/>
<path d="M42630 19417 c0 -2 30 -75 66 -163 36 -87 79 -194 96 -236 l31 -78
935 0 c515 0 933 2 931 4 -8 8 -1411 356 -1557 386 -260 54 -502 96 -502 87z"/>
<path d="M47170 18612 c0 -15 -51 -62 -84 -77 -28 -13 -772 -15 -6061 -12
-3317 2 -6064 6 -6105 10 -86 7 -119 12 -140 21 -100 41 -441 58 -627 32 -123
-17 -282 -52 -299 -67 -6 -5 -13 -7 -16 -4 -7 7 -109 -24 -135 -41 -13 -8 -23
-12 -23 -10 0 7 -68 -18 -192 -71 -73 -31 -105 -49 -96 -55 9 -6 7 -7 -7 -6
-27 4 -136 -52 -128 -65 3 -6 1 -7 -5 -3 -9 6 -82 -30 -82 -41 0 -2 5 -1 10 2
6 3 10 4 10 1 0 -3 -10 -10 -21 -17 -16 -8 -20 -8 -14 0 7 13 -17 -2 -107 -63
-33 -22 -55 -43 -51 -50 3 -6 3 -8 -2 -4 -11 11 -47 -11 -39 -24 4 -7 3 -8 -4
-4 -20 12 -318 -276 -306 -296 4 -6 3 -8 -3 -5 -10 6 -83 -74 -83 -92 0 -5 -4
-11 -8 -13 -18 -7 -82 -109 -76 -120 4 -7 3 -8 -5 -4 -6 4 -14 0 -18 -11 -3
-10 -13 -26 -20 -35 -8 -9 -12 -22 -7 -29 4 -7 3 -10 -3 -6 -13 8 -96 -150
-87 -165 4 -6 3 -8 -3 -5 -9 6 -24 -26 -28 -58 -1 -5 -11 -26 -23 -45 -12 -19
-20 -41 -17 -48 3 -7 1 -11 -4 -8 -8 6 -67 -174 -100 -309 -23 -95 -53 -269
-50 -293 1 -9 -2 -26 -7 -37 -5 -11 -9 -145 -9 -298 0 -224 3 -279 14 -286 10
-6 10 -10 1 -13 -9 -3 -9 -33 4 -134 17 -138 64 -396 75 -404 3 -3 7 -18 8
-34 1 -16 5 -37 9 -45 4 -9 8 -26 10 -39 4 -30 86 -296 93 -302 3 -3 7 -12 8
-20 2 -18 40 -148 49 -170 4 -8 8 -22 10 -31 2 -9 9 -29 15 -45 7 -16 13 -36
14 -44 4 -24 36 -114 46 -126 5 -6 6 -14 2 -17 -3 -4 -1 -13 5 -20 7 -8 9 -17
5 -20 -3 -4 -2 -7 3 -7 5 0 10 -10 11 -23 0 -12 7 -35 14 -52 6 -16 13 -34 14
-40 9 -38 59 -194 68 -210 6 -11 12 -24 12 -30 5 -34 19 -75 26 -75 5 0 6 -7
3 -15 -4 -8 -2 -15 4 -15 5 0 10 -6 9 -12 -1 -35 4 -49 15 -42 6 4 8 3 4 -4
-9 -15 26 -122 38 -115 5 4 7 0 3 -9 -5 -14 44 -185 61 -212 3 -6 7 -17 8 -26
1 -14 147 -459 161 -490 3 -8 7 -19 8 -25 6 -25 68 -211 73 -220 4 -5 7 -16 9
-24 4 -31 99 -306 106 -309 4 -2 5 -7 2 -11 -7 -12 70 -233 78 -224 5 4 5 0 2
-8 -3 -9 0 -29 6 -45 7 -16 13 -33 14 -39 2 -5 26 -80 54 -165 28 -86 51 -162
51 -169 0 -7 5 -9 12 -5 7 4 8 3 4 -5 -9 -15 20 -105 39 -121 8 -7 13 -16 10
-20 -7 -12 17 -100 26 -94 4 2 10 -3 13 -12 4 -9 2 -13 -5 -8 -13 7 -6 -20 19
-76 8 -19 14 -38 14 -42 -2 -6 21 -74 45 -138 3 -8 8 -23 9 -33 2 -9 13 -43
25 -75 11 -31 22 -68 25 -81 3 -13 10 -34 16 -45 7 -12 13 -28 14 -36 8 -48
110 -337 118 -333 5 4 6 1 2 -5 -4 -6 -4 -23 0 -37 5 -20 9 -24 16 -13 5 8 6
3 2 -14 -4 -18 -2 -28 6 -28 6 0 9 -4 5 -10 -3 -5 4 -39 16 -76 16 -49 24 -63
31 -53 7 10 8 9 3 -6 -9 -27 65 -260 77 -243 6 9 7 6 3 -8 -5 -18 113 -405
133 -439 4 -5 8 -18 9 -27 5 -34 194 -610 203 -618 3 -3 5 -12 6 -21 2 -34 68
-228 76 -223 4 3 6 -1 3 -8 -3 -7 17 -83 45 -168 27 -85 50 -160 50 -166 0 -6
10 -24 22 -40 13 -15 17 -25 10 -20 -6 4 -12 5 -12 3 0 -9 46 -133 54 -146 5
-7 10 -30 11 -49 1 -20 7 -38 13 -40 6 -2 8 -10 5 -19 -5 -12 -3 -14 7 -8 9 5
11 4 6 -3 -4 -6 4 -47 17 -89 l24 -78 -58 -305 c-32 -168 -123 -651 -203
-1075 -80 -423 -217 -1152 -305 -1620 -88 -467 -218 -1156 -288 -1530 l-128
-679 -85 -37 c-91 -39 -410 -209 -525 -279 -274 -166 -367 -298 -306 -435 11
-26 21 -49 21 -51 0 -2 -1700 -3 -3777 -2 l-3778 3 -3 5273 -2 5272 770 0 770
0 0 405 0 405 -1191 0 -1192 0 27 21 c33 26 69 81 84 129 16 49 27 2605 13
2710 -12 79 -59 237 -92 306 -11 22 -34 49 -52 60 -30 18 -58 19 -549 22 -285
2 -518 6 -518 9 0 3 10 18 21 35 55 77 76 247 43 359 -19 68 -72 146 -121 179
-53 36 -144 36 -199 -1 -49 -33 -88 -88 -115 -165 -17 -49 -20 -77 -17 -165 3
-100 6 -112 40 -178 l36 -71 -134 0 c-178 0 -218 -17 -249 -107 l-13 -38 631
-5 632 -5 27 -80 c50 -149 50 -172 43 -1262 -6 -734 -11 -1013 -19 -1013 -6 0
-323 0 -703 0 l-693 0 0 -160 0 -160 193 0 c105 -1 417 -3 692 -6 275 -3 506
-5 514 -4 10 0 12 -25 10 -127 -4 -118 -6 -132 -31 -174 -15 -25 -43 -60 -63
-78 l-36 -31 -1379 0 -1380 0 0 45 0 45 -1952 2 c-1074 1 -1963 2 -1975 2 -13
0 -23 4 -23 8 0 4 -6 8 -14 8 -8 0 -44 16 -81 35 -36 18 -72 32 -79 29 -8 -3
-17 -1 -21 5 -4 7 1 8 12 4 10 -4 -12 26 -49 66 -38 41 -68 78 -68 83 0 5 -5
6 -12 2 -6 -4 -8 -3 -4 4 8 13 -14 63 -25 56 -5 -3 -6 2 -3 11 4 8 1 22 -6 30
-7 8 -10 15 -8 15 2 0 0 24 -6 53 -10 51 -5 531 6 567 2 8 16 39 31 68 15 29
25 58 21 64 -4 7 -3 8 4 4 7 -4 19 6 31 24 10 17 28 38 40 46 12 9 19 20 15
25 -3 5 0 8 8 7 7 -2 12 4 10 12 -2 8 0 12 3 8 11 -11 47 11 39 24 -5 7 -2 8
6 3 8 -5 18 -2 26 9 7 10 15 17 18 17 21 -3 26 0 20 11 -4 6 -3 8 3 5 5 -3 38
3 72 13 61 20 108 20 2012 20 l1949 0 0 45 0 46 -462 -1 c-1295 -3 -3216 3
-3163 10 83 11 216 62 274 104 70 52 129 120 159 184 l27 57 0 255 0 255 -27
57 c-69 148 -246 264 -436 285 -37 5 -948 7 -2024 5 l-1958 -2 0 -33 0 -32
1887 3 c1244 2 1919 -1 1978 -7 170 -20 296 -82 379 -188 69 -88 78 -122 84
-314 3 -132 1 -179 -12 -230 -46 -178 -216 -303 -448 -329 -63 -7 -695 -10
-1981 -8 l-1887 3 0 -32 0 -33 1858 -1 c1021 -1 1848 -3 1837 -6 -189 -40
-269 -78 -365 -173 -74 -75 -121 -155 -145 -249 -14 -54 -16 -109 -13 -365 4
-296 5 -302 30 -367 36 -91 64 -135 132 -202 53 -53 142 -111 157 -101 7 4 10
3 6 -3 -6 -9 81 -42 148 -56 11 -3 -1322 -5 -2962 -6 l-2983 -1 0 -405 0 -405
536 0 c505 0 535 -1 530 -17 -16 -56 -126 -450 -591 -2128 -284 -1023 -917
-3302 -1406 -5065 -489 -1763 -898 -3234 -908 -3270 l-18 -65 -2082 -3 -2081
-2 2 -243 3 -242 35933 -3 35932 -2 0 245 0 245 -7942 3 c-4369 1 -9483 1
-11365 -1 l-3421 -3 -11 53 c-6 29 -126 649 -266 1378 -141 729 -280 1451
-310 1605 -30 154 -106 550 -170 880 -64 330 -151 785 -195 1010 -313 1618
-567 2934 -786 4070 -140 726 -255 1323 -257 1326 -1 3 -54 -50 -117 -119 -63
-69 -182 -185 -266 -259 l-151 -135 8 -41 c5 -23 92 -492 194 -1042 203 -1094
398 -2139 620 -3335 333 -1793 442 -2379 590 -3175 86 -462 212 -1141 281
-1509 68 -368 124 -677 124 -687 0 -19 -80 -19 -3190 -19 -1754 0 -3190 2
-3190 4 0 3 135 722 300 1598 165 876 334 1773 376 1993 41 220 122 648 179
950 57 303 199 1054 315 1670 116 616 244 1296 285 1510 40 215 72 391 70 393
-2 2 -79 -26 -172 -61 -92 -36 -234 -89 -315 -117 -82 -29 -148 -57 -148 -62
0 -5 -94 -516 -210 -1136 -408 -2195 -1176 -6331 -1232 -6630 l-20 -112 -577
0 -576 1 80 38 c270 129 379 328 346 630 -18 156 -58 326 -97 410 -45 96 -104
184 -239 356 -60 77 -145 187 -188 245 -43 58 -80 106 -82 108 -2 2 -34 -19
-72 -46 -140 -102 -318 -188 -545 -263 -236 -78 -374 -93 -598 -65 -269 34
-520 107 -929 272 -101 41 -186 72 -189 70 -10 -10 -53 -207 -77 -351 -47
-289 -75 -618 -75 -899 l0 -159 39 -37 c78 -74 327 -184 595 -262 l148 -43
-1092 -3 c-601 -1 -1095 -1 -1096 1 -3 3 -314 1607 -625 3222 -60 314 -125
649 -144 745 -19 96 -154 796 -300 1555 -146 759 -268 1388 -271 1397 -6 20
-1 19 -282 53 -117 14 -251 32 -299 40 -48 8 -88 13 -89 12 -1 -1 128 -702
287 -1557 159 -855 357 -1919 439 -2365 83 -445 187 -1001 230 -1235 290
-1562 340 -1832 340 -1850 0 -20 -2 -20 -1362 -18 -1114 1 -1464 7 -1000 17
l62 1 0 63 c0 169 -56 742 -95 972 -25 151 -74 317 -103 351 -22 26 -58 48
-103 63 -51 16 -96 0 -289 -108 -376 -209 -480 -250 -695 -271 -217 -22 -574
24 -914 116 -128 35 -451 139 -483 156 -23 11 -567 -127 -1112 -283 -114 -33
-210 -59 -211 -57 -2 2 48 273 110 603 63 330 168 886 233 1235 66 349 176
929 243 1289 l124 655 29 -95 c16 -52 32 -95 37 -97 4 -2 5 -10 2 -19 -5 -12
-3 -14 7 -8 9 5 11 4 6 -4 -4 -6 0 -37 9 -69 30 -105 107 -357 113 -367 3 -5
7 -16 7 -25 4 -41 181 -626 192 -633 7 -4 13 -13 13 -20 0 -8 -4 -6 -11 3 -8
11 -9 8 -4 -15 4 -16 10 -32 13 -35 4 -3 8 -14 9 -25 3 -37 77 -300 85 -303 4
-2 6 -8 2 -13 -3 -5 9 -58 25 -117 17 -59 31 -117 31 -127 0 -13 3 -16 8 -8 4
6 8 -8 9 -30 1 -23 7 -55 14 -72 7 -16 11 -33 11 -38 -1 -4 11 -67 27 -140 16
-72 37 -177 46 -232 9 -55 18 -101 19 -103 2 -1 488 -5 1082 -7 593 -3 1098
-8 1122 -10 l42 -5 0 79 c0 43 -3 81 -7 84 -3 4 -6 30 -6 59 1 29 -17 323 -38
653 -21 330 -41 634 -43 675 -14 278 -41 686 -45 690 -3 3 -7 41 -7 85 -2 97
-50 897 -79 1305 -3 41 -5 101 -4 132 0 32 -2 62 -6 67 -3 6 -7 52 -9 103 -2
51 -7 131 -10 178 -4 47 -6 97 -6 112 0 15 -4 87 -10 160 -6 73 -13 183 -16
243 -3 61 -12 202 -20 315 -8 113 -15 233 -15 268 -1 34 -4 62 -8 62 -3 0 -5
17 -3 38 1 20 -33 602 -77 1292 -90 1410 -87 1358 -96 1535 -4 72 -10 132 -14
135 -3 3 -7 44 -8 92 -4 198 -128 1133 -155 1165 -5 7 -7 17 -4 22 10 15 -24
192 -41 220 -10 16 -11 21 -2 16 9 -6 10 -3 5 11 -4 10 -10 35 -12 54 -3 19
-18 98 -34 175 -17 77 -32 152 -34 166 -12 72 -78 356 -86 370 -5 9 -7 19 -4
22 3 2 85 -16 182 -40 1977 -497 4165 -874 6342 -1092 217 -22 433 -43 480
-47 88 -7 105 -16 89 -46 -5 -9 -9 -30 -9 -45 0 -15 -9 -89 -20 -163 -37 -252
-51 -373 -46 -386 3 -8 1 -14 -4 -14 -6 0 -10 -11 -10 -25 0 -13 -17 -156 -39
-317 -21 -161 -39 -300 -39 -308 -1 -8 -10 -76 -20 -150 -11 -74 -20 -142 -21
-150 -1 -8 -3 -35 -5 -60 -2 -25 -7 -52 -10 -60 -3 -8 -19 -121 -35 -250 -17
-129 -44 -338 -61 -465 -16 -126 -32 -248 -35 -270 -2 -22 -16 -123 -30 -225
-14 -102 -24 -192 -24 -200 1 -8 -1 -22 -4 -30 -6 -14 -81 -575 -91 -680 -2
-25 -15 -124 -29 -220 -14 -96 -25 -182 -25 -190 -1 -23 -51 -382 -56 -403 -2
-9 0 -15 5 -11 5 3 9 0 9 -5 0 -6 -4 -11 -10 -11 -5 0 -10 -10 -9 -22 0 -13
-14 -120 -31 -238 -16 -118 -32 -240 -34 -270 -2 -30 -6 -62 -10 -70 -3 -8
-12 -69 -20 -135 -8 -66 -27 -209 -41 -317 -14 -108 -25 -200 -24 -205 1 -4 0
-15 -4 -23 -7 -19 -99 -722 -96 -735 1 -6 0 -17 -4 -25 -11 -29 -49 -350 -43
-366 3 -8 2 -13 -2 -10 -4 2 -20 -91 -35 -207 -15 -117 -40 -311 -57 -432 -16
-122 -27 -230 -26 -240 2 -11 0 -22 -3 -25 -4 -3 -17 -84 -29 -180 -13 -96
-31 -240 -42 -320 -10 -80 -19 -152 -19 -160 -1 -8 -8 -68 -18 -132 -9 -65
-14 -120 -12 -122 3 -4 86 -16 209 -30 19 -3 73 -10 120 -16 48 -6 90 -10 95
-9 6 1 17 0 25 -3 8 -4 368 -49 800 -102 432 -53 801 -99 820 -101 198 -25
303 -36 308 -31 3 3 10 2 16 -3 6 -5 38 -12 72 -15 l60 -5 32 114 c18 63 31
118 30 122 -1 4 3 17 9 28 10 18 40 125 234 810 34 121 62 232 63 247 1 14 4
24 7 22 10 -6 31 85 23 99 -4 7 -3 8 2 4 9 -9 66 191 58 205 -3 4 -1 8 4 8 13
0 63 195 56 217 -4 14 -4 15 4 4 7 -10 12 -2 18 30 5 24 8 50 7 57 0 6 4 12 9
12 5 0 8 8 7 18 -1 9 3 30 10 45 6 16 9 33 5 38 -3 5 -1 9 3 9 8 0 35 88 47
150 2 8 6 22 9 30 14 36 118 420 121 445 1 12 5 25 8 30 5 9 57 191 62 220 1
6 10 35 19 65 8 30 25 89 35 130 20 73 108 396 119 434 4 14 2 16 -8 11 -8 -5
-7 0 3 11 9 10 20 33 23 49 4 17 20 76 36 131 16 56 26 110 22 120 -4 10 -2
15 4 11 9 -6 57 157 57 196 0 9 4 17 9 17 5 0 7 6 4 13 -2 6 2 27 10 45 7 18
11 37 8 42 -3 4 -1 10 3 12 5 1 28 77 52 168 23 91 54 206 67 255 13 50 26
102 28 117 2 15 6 31 9 36 14 23 66 237 61 251 -3 8 -3 12 2 8 4 -4 24 56 45
135 20 78 35 144 33 147 -3 2 0 10 5 16 6 7 12 27 13 44 1 17 5 31 8 31 4 0
11 21 16 48 10 45 33 134 103 395 17 65 33 131 35 145 2 15 4 27 5 27 1 0 3 7
5 15 3 8 20 74 40 145 19 72 33 136 30 143 -2 6 0 12 4 12 8 0 20 46 27 95 0
6 4 17 7 25 15 40 38 133 33 138 -3 3 -2 10 3 16 13 16 42 136 36 146 -3 5 -1
11 4 14 5 3 21 59 36 123 14 65 31 130 37 145 5 15 7 31 4 37 -4 5 -2 12 3 15
5 3 21 59 36 123 14 65 31 131 37 146 6 15 8 30 4 34 -3 3 -2 11 3 17 10 12
29 79 36 124 3 15 14 60 25 101 12 40 18 76 15 79 -2 3 -1 10 4 16 8 10 51
174 56 216 1 8 5 22 8 30 3 8 17 62 31 120 14 58 41 170 60 250 19 80 44 186
56 235 12 50 22 104 23 121 1 18 5 30 8 28 6 -3 16 39 24 101 1 6 5 17 8 25 3
8 20 78 37 155 17 77 37 168 46 203 8 34 13 66 9 71 -3 5 -1 11 3 13 7 2 71
276 77 327 1 9 4 23 8 31 9 22 88 397 91 435 2 17 5 36 8 41 10 16 49 216 43
222 -2 3 -1 10 4 16 12 14 32 126 25 137 -3 5 -1 9 3 9 8 0 30 102 39 180 1
14 7 43 13 66 6 23 12 57 15 77 2 20 7 44 10 54 4 15 45 242 62 348 2 17 9 56
15 88 5 31 7 61 4 66 -3 6 0 13 6 16 5 4 9 21 8 39 -2 17 0 36 3 41 8 13 47
312 52 402 3 40 7 76 10 81 11 18 14 418 4 482 -5 25 -10 63 -12 85 -14 124
-30 220 -47 275 -6 19 -13 48 -16 65 -8 47 -50 186 -69 230 -10 22 -18 45 -20
50 -4 23 -48 121 -61 136 -7 9 -10 19 -6 22 3 4 0 7 -7 7 -7 0 -11 3 -7 6 13
14 -125 240 -205 337 -22 26 -45 44 -50 40 -7 -4 -8 -1 -3 7 9 14 -152 173
-167 164 -4 -3 -8 2 -8 11 0 11 -5 15 -15 12 -8 -4 -17 -1 -21 5 -5 7 -2 8 7
3 8 -5 3 4 -11 19 -13 14 -30 24 -37 22 -7 -3 -15 0 -19 6 -5 7 -2 8 7 3 37
-21 -13 17 -71 54 -35 23 -70 39 -77 37 -7 -3 -12 -2 -10 2 1 4 0 7 -3 8 -3 0
-23 12 -45 26 -76 47 -235 101 -235 80z m65 -22 c-3 -5 -12 -10 -18 -10 -7 0
-6 4 3 10 19 12 23 12 15 0z m-13900 -290 c-3 -5 -12 -10 -18 -10 -7 0 -6 4 3
10 19 12 23 12 15 0z m-140 -120 c3 -6 -1 -7 -9 -4 -18 7 -21 14 -7 14 6 0 13
-4 16 -10z m14786 -167 c13 -16 12 -17 -3 -4 -10 7 -18 15 -18 17 0 8 8 3 21
-13z m-15217 -154 c3 -3 -5 -5 -19 -5 -13 0 -22 3 -19 7 4 8 30 6 38 -2z m-69
-59 c-16 -18 -14 -25 8 -21 10 1 9 -7 -2 -13 -5 -3 -14 0 -20 8 -9 11 -8 18 4
30 23 23 32 20 10 -4z m-9583 -666 c87 -45 29 -139 -87 -138 -97 2 -157 60
-117 113 36 49 135 61 204 25z m22 -219 c42 -20 76 -66 76 -104 0 -35 -67 -97
-120 -111 -153 -41 -306 76 -228 175 50 64 182 84 272 40z m-6400 -3321 c3 -8
2 -12 -4 -9 -6 3 -10 10 -10 16 0 14 7 11 14 -7z m-1614 -2954 l0 -1940 -1746
0 c-1658 0 -1745 1 -1740 18 6 19 378 1357 621 2232 392 1415 446 1606 450
1618 3 9 255 12 1210 12 l1205 0 0 -1940z m7430 1883 c-11 -32 -202 -620 -425
-1308 -224 -687 -499 -1532 -611 -1877 -112 -345 -204 -630 -204 -633 0 -3
-1244 -5 -2765 -5 l-2765 0 0 1940 0 1940 3394 0 3395 0 -19 -57z m1900 -5218
l0 -5275 -2330 0 c-1736 0 -2330 3 -2330 11 0 7 324 1009 721 2228 397 1219
815 2506 931 2861 115 355 238 733 273 840 84 257 867 2665 1221 3753 l279
857 617 0 618 0 0 -5275z m8877 4563 c-3 -8 -6 -5 -6 6 -1 11 2 17 5 13 3 -3
4 -12 1 -19z m13903 -789 c0 -6 -4 -7 -10 -4 -5 3 -10 11 -10 16 0 6 5 7 10 4
6 -3 10 -11 10 -16z m-13183 -1404 c0 -8 -4 -12 -9 -9 -5 3 -6 10 -3 15 9 13
12 11 12 -6z m-18927 -4665 l0 -2980 -2670 0 c-1468 0 -2670 2 -2670 4 0 4
970 3499 1550 5589 55 197 100 360 100 363 0 2 830 4 1845 4 l1845 0 0 -2980z
m5950 2971 c0 -4 -165 -514 -366 -1132 -201 -618 -509 -1567 -686 -2109 -176
-542 -342 -1052 -369 -1135 -27 -82 -153 -471 -281 -863 l-232 -712 -1678 0
-1678 0 0 2980 0 2980 2645 0 c1486 0 2645 -4 2645 -9z m16733 -2946 c-3 -9
-8 -14 -10 -11 -3 3 -2 9 2 15 9 16 15 13 8 -4z m-26 -3001 c-3 -3 -12 -4 -19
-1 -8 3 -5 6 6 6 11 1 17 -2 13 -5z"/>
<path d="M17396 17325 c-190 -52 -328 -196 -356 -371 -13 -77 -13 -372 0 -448
26 -162 160 -306 330 -356 62 -18 129 -19 1650 -23 872 -2 1665 -2 1763 1
l177 5 0 31 0 31 -1723 0 -1722 0 -66 23 c-129 44 -217 119 -271 230 l-33 67
-3 192 c-4 209 5 265 54 349 33 56 110 126 173 158 116 59 12 56 1878 56
l1713 0 0 35 0 35 -1757 -1 c-1438 -1 -1767 -3 -1807 -14z"/>
</g>
</svg>
